<svg width="38" height="32" viewBox="0 0 38 32" fill="none" xmlns="http://www.w3.org/2000/svg">
<path d="M0 10.6226C0 9.83065 0.642007 9.18864 1.43396 9.18864H6.09434C6.88629 9.18864 7.5283 9.83065 7.5283 10.6226V31.0566H1.43396C0.642007 31.0566 0 30.4146 0 29.6226V10.6226Z" fill="#1673D0"/>
<path d="M19.3585 0.943359H26.8868V29.6226C26.8868 30.4146 26.2448 31.0566 25.4528 31.0566H19.3585V0.943359Z" fill="#1673D0"/>
<path d="M7.5283 31.0566V23.5283H17.2075C17.9995 23.5283 18.6415 24.1703 18.6415 24.9622V31.0566H7.5283Z" fill="#1673D0"/>
<path d="M26.8868 8.47166V0.943359H36.566C37.358 0.943359 38 1.58537 38 2.37732V7.0377C38 7.82965 37.358 8.47166 36.566 8.47166H26.8868Z" fill="#1673D0"/>
<path d="M9.67924 8.47166C8.88729 8.47166 8.24528 7.82965 8.24528 7.0377V2.37732C8.24528 1.58537 8.88729 0.943359 9.67924 0.943359H19.3585V8.47166H9.67924Z" fill="#1673D0"/>
<path d="M0 8.47166V2.37732C0 1.58537 0.642007 0.943359 1.43396 0.943359H7.5283V7.0377C7.5283 7.82965 6.88629 8.47166 6.09434 8.47166H0Z" fill="#202020"/>
</svg>
