<svg width="71" height="72" viewBox="0 0 71 72" fill="none" xmlns="http://www.w3.org/2000/svg">
<g filter="url(#filter0_d_103_10)">
<ellipse cx="35.3843" cy="32.0902" rx="30.8199" ry="31.11" fill="black"/>
<path d="M65.7041 32.0902C65.7041 49.0001 52.1251 62.7002 35.3843 62.7002C18.6435 62.7002 5.06439 49.0001 5.06439 32.0902C5.06439 15.1804 18.6435 1.48026 35.3843 1.48026C52.1251 1.48026 65.7041 15.1804 65.7041 32.0902Z" stroke="#6400E3"/>
</g>
<path fill-rule="evenodd" clip-rule="evenodd" d="M31.7959 17.9613C31.7962 17.6666 31.6808 17.3792 31.4657 17.1393C31.2506 16.8995 30.9466 16.7191 30.5963 16.6235C30.246 16.5279 29.8669 16.5218 29.512 16.6061C29.1572 16.6904 28.8443 16.8609 28.6172 17.0937L16.1866 29.8104C15.9441 30.0584 15.8125 30.3637 15.8125 30.6779C15.8125 30.9921 15.9441 31.2974 16.1866 31.5454L28.6172 44.2621C28.8443 44.4949 29.1572 44.6654 29.512 44.7497C29.8669 44.834 30.246 44.8279 30.5963 44.7324C30.9466 44.6367 31.2506 44.4564 31.4657 44.2165C31.6808 43.9766 31.7962 43.6892 31.7959 43.3945V37.7569C41.348 37.9151 45.9366 39.3578 48.2417 40.9261C50.4329 42.4167 50.8343 44.1702 51.2517 46.0071L51.3599 46.4804C51.4397 46.8192 51.6721 47.123 52.0137 47.3348C52.3552 47.5467 52.7824 47.6519 53.2146 47.6308C53.6468 47.6095 54.0545 47.4635 54.3608 47.2198C54.6671 46.9763 54.851 46.652 54.8778 46.3081C55.1815 42.4253 54.7251 36.7988 51.2782 32.0923C47.9327 27.5242 41.9073 24.0116 31.7959 23.6442V17.9613Z" fill="#6400E3"/>
<defs>
<filter id="filter0_d_103_10" x="0.564392" y="0.980255" width="69.6397" height="70.22" filterUnits="userSpaceOnUse" color-interpolation-filters="sRGB">
<feFlood flood-opacity="0" result="BackgroundImageFix"/>
<feColorMatrix in="SourceAlpha" type="matrix" values="0 0 0 0 0 0 0 0 0 0 0 0 0 0 0 0 0 0 127 0" result="hardAlpha"/>
<feOffset dy="4"/>
<feGaussianBlur stdDeviation="2"/>
<feComposite in2="hardAlpha" operator="out"/>
<feColorMatrix type="matrix" values="0 0 0 0 0 0 0 0 0 0 0 0 0 0 0 0 0 0 0.25 0"/>
<feBlend mode="normal" in2="BackgroundImageFix" result="effect1_dropShadow_103_10"/>
<feBlend mode="normal" in="SourceGraphic" in2="effect1_dropShadow_103_10" result="shape"/>
</filter>
</defs>
</svg>
