<svg width="673" height="775" viewBox="0 0 673 775" fill="none" xmlns="http://www.w3.org/2000/svg">
<g filter="url(#filter0_d_301_3)">
<rect x="12.2936" y="8.12921" width="648" height="750" rx="46" fill="#FFF8F8"/>
</g>
<path d="M275.022 37.0911L273.396 37.5511C273.294 37.2802 273.143 37.0169 272.944 36.7613C272.749 36.5006 272.483 36.2859 272.146 36.1172C271.809 35.9485 271.377 35.8642 270.85 35.8642C270.129 35.8642 269.529 36.0303 269.048 36.3626C268.573 36.6898 268.335 37.1064 268.335 37.6125C268.335 38.0623 268.499 38.4176 268.826 38.6784C269.153 38.9391 269.664 39.1563 270.359 39.3301L272.108 39.7595C273.161 40.0151 273.945 40.4062 274.462 40.9328C274.978 41.4542 275.236 42.1264 275.236 42.9495C275.236 43.6242 275.042 44.2275 274.654 44.7591C274.27 45.2908 273.733 45.71 273.043 46.0167C272.353 46.3234 271.551 46.4768 270.635 46.4768C269.434 46.4768 268.44 46.216 267.653 45.6946C266.865 45.1732 266.367 44.4115 266.157 43.4095L267.875 42.9801C268.039 43.614 268.348 44.0894 268.803 44.4064C269.263 44.7233 269.864 44.8818 270.605 44.8818C271.448 44.8818 272.118 44.7029 272.614 44.345C273.115 43.9821 273.365 43.5476 273.365 43.0415C273.365 42.6325 273.222 42.29 272.936 42.014C272.65 41.7328 272.21 41.5232 271.617 41.3852L269.654 40.9251C268.575 40.6695 267.783 40.2733 267.277 39.7365C266.776 39.1947 266.525 38.5173 266.525 37.7045C266.525 37.0399 266.712 36.4521 267.085 35.9409C267.463 35.4297 267.977 35.0284 268.626 34.737C269.281 34.4456 270.022 34.2999 270.85 34.2999C272.016 34.2999 272.931 34.5555 273.595 35.0667C274.265 35.5779 274.74 36.2527 275.022 37.0911ZM282.899 46.4768C281.764 46.4768 280.785 46.2263 279.962 45.7253C279.144 45.2192 278.512 44.5137 278.068 43.6089C277.628 42.699 277.408 41.6408 277.408 40.4343C277.408 39.2279 277.628 38.1646 278.068 37.2444C278.512 36.3191 279.131 35.5983 279.923 35.082C280.721 34.5606 281.651 34.2999 282.715 34.2999C283.328 34.2999 283.934 34.4021 284.532 34.6066C285.13 34.8111 285.674 35.1434 286.165 35.6035C286.656 36.0584 287.047 36.6617 287.338 37.4131C287.63 38.1646 287.775 39.0899 287.775 40.189V40.9558H278.696V39.3915H285.935C285.935 38.7269 285.802 38.1339 285.536 37.6125C285.276 37.0911 284.903 36.6795 284.417 36.3779C283.936 36.0763 283.369 35.9255 282.715 35.9255C281.994 35.9255 281.37 36.1044 280.844 36.4623C280.322 36.815 279.921 37.2751 279.64 37.8425C279.358 38.41 279.218 39.0183 279.218 39.6675V40.7104C279.218 41.5999 279.371 42.3539 279.678 42.9725C279.99 43.5859 280.422 44.0537 280.974 44.3757C281.526 44.6927 282.168 44.8511 282.899 44.8511C283.374 44.8511 283.803 44.7847 284.187 44.6518C284.575 44.5137 284.91 44.3093 285.191 44.0383C285.472 43.7623 285.69 43.4198 285.843 43.0108L287.591 43.5016C287.407 44.0946 287.098 44.616 286.664 45.0658C286.229 45.5106 285.692 45.8582 285.053 46.1087C284.414 46.3541 283.696 46.4768 282.899 46.4768ZM293.994 46.5074C293.248 46.5074 292.571 46.3669 291.962 46.0857C291.354 45.7994 290.871 45.3879 290.513 44.8511C290.155 44.3093 289.976 43.6549 289.976 42.8881C289.976 42.2133 290.109 41.6663 290.375 41.2471C290.641 40.8228 290.996 40.4906 291.441 40.2503C291.886 40.01 292.376 39.8311 292.913 39.7135C293.455 39.5908 293.999 39.4937 294.546 39.4222C295.262 39.3301 295.842 39.2611 296.287 39.2151C296.737 39.164 297.064 39.0796 297.269 38.9621C297.478 38.8445 297.583 38.64 297.583 38.3486V38.2873C297.583 37.5307 297.376 36.9428 296.962 36.5236C296.553 36.1044 295.932 35.8948 295.098 35.8948C294.235 35.8948 293.557 36.084 293.066 36.4623C292.576 36.8406 292.231 37.2444 292.031 37.6738L290.314 37.0604C290.62 36.3447 291.029 35.7875 291.54 35.3888C292.057 34.9849 292.619 34.7037 293.227 34.5453C293.841 34.3817 294.444 34.2999 295.037 34.2999C295.415 34.2999 295.85 34.3459 296.341 34.4379C296.837 34.5248 297.315 34.7063 297.775 34.9823C298.24 35.2584 298.626 35.675 298.932 36.2322C299.239 36.7895 299.393 37.5358 299.393 38.4713V46.2314H297.583V44.6364H297.491C297.368 44.892 297.164 45.1655 296.877 45.4569C296.591 45.7483 296.21 45.9962 295.735 46.2007C295.259 46.4052 294.679 46.5074 293.994 46.5074ZM294.27 44.8818C294.986 44.8818 295.589 44.7412 296.08 44.4601C296.576 44.1789 296.949 43.8159 297.2 43.3712C297.455 42.9265 297.583 42.4587 297.583 41.9679V40.3116C297.506 40.4037 297.338 40.488 297.077 40.5647C296.821 40.6363 296.525 40.7002 296.187 40.7564C295.855 40.8075 295.53 40.8535 295.213 40.8944C294.902 40.9302 294.649 40.9609 294.454 40.9864C293.984 41.0478 293.544 41.1475 293.135 41.2855C292.732 41.4184 292.404 41.6203 292.154 41.8913C291.909 42.1571 291.786 42.52 291.786 42.9801C291.786 43.6089 292.018 44.0843 292.484 44.4064C292.954 44.7233 293.55 44.8818 294.27 44.8818ZM302.696 46.2314V34.4533H304.444V36.2322H304.567C304.781 35.6495 305.17 35.1766 305.732 34.8136C306.294 34.4507 306.928 34.2692 307.634 34.2692C307.767 34.2692 307.933 34.2718 308.132 34.2769C308.332 34.282 308.482 34.2897 308.585 34.2999V36.1402C308.523 36.1249 308.383 36.1019 308.163 36.0712C307.948 36.0354 307.721 36.0175 307.48 36.0175C306.908 36.0175 306.397 36.1377 305.947 36.3779C305.502 36.6131 305.149 36.9403 304.889 37.3594C304.633 37.7735 304.505 38.2464 304.505 38.778V46.2314H302.696ZM315.156 46.4768C314.052 46.4768 313.101 46.216 312.304 45.6946C311.506 45.1732 310.893 44.455 310.463 43.5399C310.034 42.6248 309.819 41.5794 309.819 40.4037C309.819 39.2074 310.039 38.1518 310.479 37.2368C310.923 36.3166 311.542 35.5983 312.334 35.082C313.132 34.5606 314.062 34.2999 315.126 34.2999C315.954 34.2999 316.7 34.4533 317.365 34.76C318.029 35.0667 318.574 35.4961 318.998 36.0482C319.422 36.6003 319.685 37.2444 319.788 37.9806H317.978C317.84 37.4438 317.533 36.9684 317.058 36.5543C316.588 36.1351 315.954 35.9255 315.156 35.9255C314.451 35.9255 313.832 36.1096 313.301 36.4776C312.774 36.8406 312.362 37.3543 312.066 38.0189C311.775 38.6783 311.629 39.4528 311.629 40.3423C311.629 41.2523 311.772 42.0446 312.058 42.7194C312.35 43.3942 312.759 43.9182 313.285 44.2914C313.817 44.6645 314.44 44.8511 315.156 44.8511C315.626 44.8511 316.053 44.7693 316.437 44.6058C316.82 44.4422 317.145 44.207 317.411 43.9003C317.676 43.5936 317.866 43.2255 317.978 42.7961H319.788C319.685 43.4913 319.432 44.1176 319.029 44.6748C318.63 45.2269 318.101 45.6665 317.441 45.9937C316.787 46.3157 316.025 46.4768 315.156 46.4768ZM324.243 39.1461V46.2314H322.433V30.5272H324.243V36.2936H324.396C324.672 35.6853 325.086 35.2022 325.638 34.8443C326.196 34.4814 326.937 34.2999 327.862 34.2999C328.665 34.2999 329.368 34.4609 329.971 34.783C330.574 35.0999 331.042 35.5881 331.374 36.2476C331.712 36.9019 331.88 37.7352 331.88 38.7474V46.2314H330.071V38.8701C330.071 37.9345 329.828 37.2112 329.342 36.7C328.862 36.1837 328.194 35.9255 327.341 35.9255C326.748 35.9255 326.216 36.0508 325.746 36.3013C325.281 36.5517 324.912 36.9173 324.642 37.3978C324.376 37.8783 324.243 38.4611 324.243 39.1461ZM341.264 50.6482V34.4533H343.012V36.3243H343.227C343.36 36.1198 343.544 35.8591 343.779 35.5421C344.019 35.2201 344.362 34.9338 344.807 34.6833C345.256 34.4277 345.865 34.2999 346.632 34.2999C347.623 34.2999 348.498 34.5478 349.254 35.0437C350.011 35.5396 350.601 36.2425 351.025 37.1524C351.45 38.0623 351.662 39.1359 351.662 40.373C351.662 41.6203 351.45 42.7015 351.025 43.6166C350.601 44.5265 350.013 45.232 349.262 45.733C348.51 46.2288 347.644 46.4768 346.662 46.4768C345.906 46.4768 345.3 46.3515 344.845 46.101C344.39 45.8454 344.04 45.5566 343.794 45.2345C343.549 44.9074 343.36 44.6364 343.227 44.4217H343.074V50.6482H341.264ZM343.043 40.3423C343.043 41.2318 343.173 42.0165 343.434 42.6964C343.695 43.3712 344.076 43.9003 344.577 44.2837C345.078 44.662 345.691 44.8511 346.417 44.8511C347.173 44.8511 347.805 44.6518 348.311 44.253C348.822 43.8492 349.206 43.3073 349.461 42.6274C349.722 41.9424 349.852 41.1807 349.852 40.3423C349.852 39.5142 349.724 38.7678 349.469 38.1032C349.218 37.4336 348.837 36.9045 348.326 36.516C347.82 36.1223 347.184 35.9255 346.417 35.9255C345.681 35.9255 345.062 36.1121 344.561 36.4853C344.06 36.8534 343.682 37.3697 343.426 38.0342C343.171 38.6937 343.043 39.463 343.043 40.3423ZM357.888 46.5074C357.142 46.5074 356.465 46.3669 355.856 46.0857C355.248 45.7994 354.765 45.3879 354.407 44.8511C354.049 44.3093 353.87 43.6549 353.87 42.8881C353.87 42.2133 354.003 41.6663 354.269 41.2471C354.535 40.8228 354.89 40.4906 355.335 40.2503C355.78 40.01 356.27 39.8311 356.807 39.7135C357.349 39.5908 357.893 39.4937 358.44 39.4222C359.156 39.3301 359.736 39.2611 360.181 39.2151C360.631 39.164 360.958 39.0796 361.163 38.9621C361.372 38.8445 361.477 38.64 361.477 38.3486V38.2873C361.477 37.5307 361.27 36.9428 360.856 36.5236C360.447 36.1044 359.826 35.8948 358.993 35.8948C358.129 35.8948 357.451 36.084 356.96 36.4623C356.47 36.8406 356.125 37.2444 355.925 37.6738L354.208 37.0604C354.514 36.3447 354.923 35.7875 355.435 35.3888C355.951 34.9849 356.513 34.7037 357.122 34.5453C357.735 34.3817 358.338 34.2999 358.931 34.2999C359.309 34.2999 359.744 34.3459 360.235 34.4379C360.731 34.5248 361.209 34.7063 361.669 34.9823C362.134 35.2584 362.52 35.675 362.827 36.2322C363.133 36.7895 363.287 37.5358 363.287 38.4713V46.2314H361.477V44.6364H361.385C361.262 44.892 361.058 45.1655 360.772 45.4569C360.485 45.7483 360.104 45.9962 359.629 46.2007C359.154 46.4052 358.573 46.5074 357.888 46.5074ZM358.164 44.8818C358.88 44.8818 359.483 44.7412 359.974 44.4601C360.47 44.1789 360.843 43.8159 361.094 43.3712C361.349 42.9265 361.477 42.4587 361.477 41.9679V40.3116C361.4 40.4037 361.232 40.488 360.971 40.5647C360.715 40.6363 360.419 40.7002 360.081 40.7564C359.749 40.8075 359.424 40.8535 359.108 40.8944C358.796 40.9302 358.543 40.9609 358.348 40.9864C357.878 41.0478 357.438 41.1475 357.03 41.2855C356.626 41.4184 356.298 41.6203 356.048 41.8913C355.803 42.1571 355.68 42.52 355.68 42.9801C355.68 43.6089 355.913 44.0843 356.378 44.4064C356.848 44.7233 357.444 44.8818 358.164 44.8818ZM368.399 39.1461V46.2314H366.59V34.4533H368.338V36.2936H368.491C368.767 35.6955 369.187 35.2149 369.749 34.852C370.311 34.4839 371.037 34.2999 371.927 34.2999C372.724 34.2999 373.422 34.4635 374.02 34.7906C374.618 35.1127 375.083 35.6035 375.416 36.2629C375.748 36.9173 375.914 37.7454 375.914 38.7474V46.2314H374.104V38.8701C374.104 37.9448 373.864 37.224 373.384 36.7077C372.903 36.1862 372.244 35.9255 371.405 35.9255C370.828 35.9255 370.311 36.0508 369.856 36.3013C369.406 36.5517 369.051 36.9173 368.79 37.3978C368.53 37.8783 368.399 38.4611 368.399 39.1461ZM384.159 46.4768C383.024 46.4768 382.045 46.2263 381.222 45.7253C380.404 45.2192 379.773 44.5137 379.328 43.6089C378.889 42.699 378.669 41.6408 378.669 40.4343C378.669 39.2279 378.889 38.1646 379.328 37.2444C379.773 36.3191 380.392 35.5983 381.184 35.082C381.981 34.5606 382.912 34.2999 383.975 34.2999C384.588 34.2999 385.194 34.4021 385.792 34.6066C386.39 34.8111 386.935 35.1434 387.426 35.6035C387.916 36.0584 388.307 36.6617 388.599 37.4131C388.89 38.1646 389.036 39.0899 389.036 40.189V40.9558H379.957V39.3915H387.196C387.196 38.7269 387.063 38.1339 386.797 37.6125C386.536 37.0911 386.163 36.6795 385.677 36.3779C385.197 36.0763 384.629 35.9255 383.975 35.9255C383.254 35.9255 382.631 36.1044 382.104 36.4623C381.583 36.815 381.181 37.2751 380.9 37.8425C380.619 38.41 380.478 39.0183 380.478 39.6675V40.7104C380.478 41.5999 380.632 42.3539 380.938 42.9725C381.25 43.5859 381.682 44.0537 382.234 44.3757C382.786 44.6927 383.428 44.8511 384.159 44.8511C384.634 44.8511 385.064 44.7847 385.447 44.6518C385.836 44.5137 386.171 44.3093 386.452 44.0383C386.733 43.7623 386.95 43.4198 387.104 43.0108L388.852 43.5016C388.668 44.0946 388.359 44.616 387.924 45.0658C387.49 45.5106 386.953 45.8582 386.314 46.1087C385.675 46.3541 384.957 46.4768 384.159 46.4768ZM393.598 30.5272V46.2314H391.789V30.5272H393.598Z" fill="black"/>
<path d="M12.2936 48.9717C12.2936 26.415 30.5794 8.12921 53.1361 8.12921H619.451C642.008 8.12921 660.294 26.415 660.294 48.9717V89.8142H12.2936V48.9717Z" fill="url(#paint0_linear_301_3)"/>
<rect x="48.2645" y="134.46" width="267.334" height="63.0101" rx="10" fill="#D9D9D9"/>
<rect x="48.2645" y="254.983" width="267.334" height="63.0101" rx="10" fill="#D9D9D9"/>
<rect x="48.2645" y="362.639" width="267.334" height="63.0101" rx="10" fill="#D9D9D9"/>
<rect x="48.2645" y="470.295" width="267.334" height="63.0101" rx="10" fill="#D9D9D9"/>
<rect x="48.2645" y="577.951" width="267.334" height="63.0101" rx="10" fill="#D9D9D9"/>
<rect x="356.989" y="134.46" width="267.334" height="63.0101" rx="10" fill="#D9D9D9"/>
<rect x="356.989" y="254.983" width="267.334" height="63.0101" rx="10" fill="#D9D9D9"/>
<rect x="356.989" y="362.639" width="267.334" height="63.0101" rx="10" fill="#D9D9D9"/>
<rect x="356.989" y="470.295" width="267.334" height="63.0101" rx="10" fill="#D9D9D9"/>
<rect x="356.989" y="577.951" width="267.334" height="63.0101" rx="10" fill="#D9D9D9"/>
<defs>
<filter id="filter0_d_301_3" x="0.293579" y="0.129211" width="672" height="774" filterUnits="userSpaceOnUse" color-interpolation-filters="sRGB">
<feFlood flood-opacity="0" result="BackgroundImageFix"/>
<feColorMatrix in="SourceAlpha" type="matrix" values="0 0 0 0 0 0 0 0 0 0 0 0 0 0 0 0 0 0 127 0" result="hardAlpha"/>
<feMorphology radius="4" operator="dilate" in="SourceAlpha" result="effect1_dropShadow_301_3"/>
<feOffset dy="4"/>
<feGaussianBlur stdDeviation="4"/>
<feComposite in2="hardAlpha" operator="out"/>
<feColorMatrix type="matrix" values="0 0 0 0 0 0 0 0 0 0 0 0 0 0 0 0 0 0 0.12 0"/>
<feBlend mode="normal" in2="BackgroundImageFix" result="effect1_dropShadow_301_3"/>
<feBlend mode="normal" in="SourceGraphic" in2="effect1_dropShadow_301_3" result="shape"/>
</filter>
<linearGradient id="paint0_linear_301_3" x1="12.2936" y1="18.1097" x2="660.294" y2="89.8141" gradientUnits="userSpaceOnUse">
<stop stop-color="#6400E3"/>
<stop offset="1" stop-color="#DF00E3"/>
</linearGradient>
</defs>
</svg>
