<svg viewBox="0 0 44 46" fill="none" xmlns="http://www.w3.org/2000/svg">
<path d="M11.7155 24.8062H2.67124C1.70957 24.8062 0.908173 24.0412 0.908173 23.0737C0.908173 22.1287 1.70957 21.3413 2.67124 21.3413H11.7155L11.7162 10.5865C11.7162 5.07397 16.3755 0.573975 22.0831 0.573975H33.4517C39.136 0.573975 43.772 5.07397 43.772 10.564V35.584C43.772 41.0965 39.136 45.574 33.4051 45.574H22.0598C16.3755 45.574 11.7162 41.0965 11.7162 35.6065L11.7155 24.8062L26.16 24.8065L22.4325 28.4065C21.7337 29.0815 21.7337 30.184 22.4325 30.859C22.782 31.1965 23.2479 31.354 23.7138 31.354C24.1565 31.354 24.6224 31.1965 24.9718 30.859L31.7744 24.3115C32.1238 23.9965 32.3102 23.5465 32.3102 23.074C32.3102 22.624 32.1238 22.174 31.7744 21.859L24.9718 15.3115C24.273 14.6365 23.1314 14.6365 22.4325 15.3115C21.7337 15.9865 21.7337 17.089 22.4325 17.764L26.16 21.3415L11.7155 21.3413V24.8062Z" fill="#6400E3"/>
</svg>
